<mxfile host="app.diagrams.net" modified="2023-07-26T07:57:22.699Z" agent="Mozilla/5.0 (Windows NT 10.0; Win64; x64) AppleWebKit/537.36 (KHTML, like Gecko) Chrome/114.0.0.0 Safari/537.36" version="21.6.2" etag="_gR6LwZjZDG1biYRB3sY" type="github">
  <diagram name="Page-1" id="DolZ2Fohousd8-a1LfGO">
    <mxGraphModel>
      <root>
        <mxCell id="0" />
        <mxCell id="1" parent="0" />
      </root>
    </mxGraphModel>
  </diagram>
</mxfile>
